<svg width="371.24001464843747px" height="124.439990234375px" xmlns="http://www.w3.org/2000/svg" viewBox="64.37999267578127 12.780004882812499 371.24001464843747 124.439990234375" style="background: rgba(0, 0, 0, 0) none repeat scroll 0% 0%;" preserveAspectRatio="xMidYMid"><defs><filter id="editing-extrude-glow"><feFlood flood-color="#000000" result="flood-1"></feFlood><feMorphology operator="erode" radius="1" in="SourceAlpha" result="erode"></feMorphology><feComposite operator="in" in="flood-1" in2="erode" result="comp1"></feComposite><feConvolveMatrix order="0,0" divisor="1" in="comp1" result="convolve" kernelMatrix=""></feConvolveMatrix><feOffset dx="0" dy="0" in="convolve" result="extrude"></feOffset><feComposite operator="in" in="flood-1" in2="extrude" result="comp-extrude"></feComposite><feFlood flood-color="#000000" result="flood-2"></feFlood><feComposite operator="in" in="flood-2" in2="SourceAlpha" result="comp2"></feComposite><feMorphology operator="dilate" radius="1" in="comp2" result="dilate"></feMorphology><feOffset dx="0" dy="0" in="dilate" result="offset"></feOffset><feGaussianBlur in="offset" stdDeviation="5.8" result="blur"></feGaussianBlur><feComponentTransfer in="blur" result="shadow"><feFuncA type="linear" slope="0.8" intercept="-0.2"></feFuncA></feComponentTransfer><feMerge><feMergeNode in="shadow"></feMergeNode><feMergeNode in="comp-extrude"></feMergeNode><feMergeNode in="SourceGraphic"></feMergeNode></feMerge></filter></defs><g filter="url(#editing-extrude-glow)"><g transform="translate(123.90088629722595, 103.15999984741211)"><path d="M3.58 10.94L3.58 10.94L3.58 10.94Q0.77 10.94-0.70 9.15L-0.70 9.15L-0.70 9.15Q-2.18 7.36-2.18 4.70L-2.18 4.70L-2.18 4.70Q-2.18 2.05-1.15-0.93L-1.15-0.93L-1.15-0.93Q-0.13-3.90 1.12-6.91L1.12-6.91L1.12-6.91Q2.37-9.92 3.42-13.02L3.42-13.02L3.42-13.02Q4.48-16.13 4.54-19.39L4.54-19.39L4.54-19.39Q6.02-21.06 8.58-21.06L8.58-21.06L8.58-21.06Q11.14-21.06 12.51-19.87L12.51-19.87L12.51-19.87Q13.89-18.69 13.89-16.77L13.89-16.77L13.89-16.77Q13.89-16.32 13.76-15.68L13.76-15.68L8.77 10.05L8.77 10.05Q6.40 10.94 3.58 10.94ZM4.93-28.80L4.93-28.80L4.93-28.80Q4.93-31.23 6.82-32.58L6.82-32.58L6.82-32.58Q8.70-33.92 11.39-33.92L11.39-33.92L11.39-33.92Q14.08-33.92 15.71-32.58L15.71-32.58L15.71-32.58Q17.34-31.23 17.34-28.80L17.34-28.80L17.34-28.80Q17.34-26.37 15.52-25.06L15.52-25.06L15.52-25.06Q13.70-23.74 11.01-23.74L11.01-23.74L11.01-23.74Q8.32-23.74 6.62-25.06L6.62-25.06L6.62-25.06Q4.93-26.37 4.93-28.80ZM65.41 1.28L65.41 1.28L65.41 1.28Q57.66 1.28 57.66-4.74L57.66-4.74L57.66-4.74Q57.66-7.36 58.78-12.45L58.78-12.45L58.78-12.45Q59.90-17.54 60.29-19.58L60.29-19.58L60.29-19.58Q61.18-24.26 61.18-25.73L61.18-25.73L61.18-25.73Q61.18-28.99 58.75-28.99L58.75-28.99L58.75-28.99Q57.15-28.99 55.62-26.78L55.62-26.78L55.62-26.78Q54.08-24.58 53.38-20.16L53.38-20.16L49.41 0L36.93 1.28L40.38-16.13L40.38-16.13Q40.96-19.01 41.47-22.27L41.47-22.27L41.47-22.27Q41.98-25.54 41.98-26.05L41.98-26.05L41.98-26.05Q41.98-28.99 39.81-28.99L39.81-28.99L39.81-28.99Q38.34-28.99 36.74-26.82L36.74-26.82L36.74-26.82Q35.14-24.64 34.24-20.16L34.24-20.16L30.34 0L17.73 1.28L24.45-32.64L34.88-33.92L33.79-27.46L33.79-27.46Q35.46-30.91 38.53-32.42L38.53-32.42L38.53-32.42Q41.60-33.92 46.40-33.92L46.40-33.92L46.40-33.92Q49.15-33.92 50.94-32.58L50.94-32.58L50.94-32.58Q52.74-31.23 53.31-29.06L53.31-29.06L53.31-29.06Q54.40-31.30 57.18-32.61L57.18-32.61L57.18-32.61Q59.97-33.92 63.39-33.92L63.39-33.92L63.39-33.92Q66.82-33.92 68.51-33.18L68.51-33.18L68.51-33.18Q70.21-32.45 71.23-31.23L71.23-31.23L71.23-31.23Q72.96-28.99 72.96-24.90L72.96-24.90L72.96-24.90Q72.96-20.86 71.23-12.48L71.23-12.48L71.23-12.48Q70.34-8.38 70.34-6.88L70.34-6.88L70.34-6.88Q70.34-5.38 71.20-4.48L71.20-4.48L71.20-4.48Q72.06-3.58 73.34-3.46L73.34-3.46L73.34-3.46Q72.70-1.28 70.50 0L70.50 0L70.50 0Q68.29 1.28 65.41 1.28ZM81.06-1.92L81.06-1.92L81.06-1.92Q79.55-3.58 78.88-6.21L78.88-6.21L78.88-6.21Q78.21-8.83 78.21-13.12L78.21-13.12L78.21-13.12Q78.21-17.41 79.68-21.31L79.68-21.31L79.68-21.31Q81.15-25.22 83.84-28.03L83.84-28.03L83.84-28.03Q89.34-33.92 98.43-33.92L98.43-33.92L98.43-33.92Q101.70-33.92 104.06-32.83L104.06-32.83L115.01-33.92L110.27-8.96L110.27-8.96Q110.08-8.19 110.08-6.78L110.08-6.78L110.08-6.78Q110.08-5.38 110.94-4.48L110.94-4.48L110.94-4.48Q111.81-3.58 113.09-3.46L113.09-3.46L113.09-3.46Q112.45-1.28 110.11 0L110.11 0L110.11 0Q107.78 1.28 105.15 1.28L105.15 1.28L105.15 1.28Q102.53 1.28 100.77 0.29L100.77 0.29L100.77 0.29Q99.01-0.70 98.50-2.37L98.50-2.37L98.50-2.37Q97.47-0.77 95.30 0.26L95.30 0.26L95.30 0.26Q93.12 1.28 90.21 1.28L90.21 1.28L90.21 1.28Q87.30 1.28 84.93 0.51L84.93 0.51L84.93 0.51Q82.56-0.26 81.06-1.92ZM94.56-27.90L94.56-27.90L94.56-27.90Q93.82-26.75 93.18-24.80L93.18-24.80L93.18-24.80Q92.54-22.85 91.49-17.63L91.49-17.63L91.49-17.63Q90.43-12.42 90.43-8.70L90.43-8.70L90.43-8.70Q90.43-4.99 91.01-3.90L91.01-3.90L91.01-3.90Q91.58-2.82 92.61-2.82L92.61-2.82L92.61-2.82Q94.66-2.82 96.16-4.77L96.16-4.77L96.16-4.77Q97.66-6.72 98.24-10.18L98.24-10.18L101.63-28.93L101.63-28.93Q100.29-30.08 98.72-30.08L98.72-30.08L98.72-30.08Q97.15-30.08 96.22-29.57L96.22-29.57L96.22-29.57Q95.30-29.06 94.56-27.90ZM145.54 1.28L145.54 1.28L145.54 1.28Q137.79 1.28 137.79-4.74L137.79-4.74L137.79-4.74Q137.86-6.40 138.37-9.22L138.37-9.22L139.52-15.10L139.52-15.10Q141.25-23.42 141.25-25.28L141.25-25.28L141.25-25.28Q141.25-28.99 139.07-28.99L139.07-28.99L139.07-28.99Q135.42-28.99 133.50-19.46L133.50-19.46L129.73 0L116.86 1.28L123.52-32.70L134.02-33.92L132.99-27.65L132.99-27.65Q136-33.92 145.22-33.92L145.22-33.92L145.22-33.92Q149.70-33.92 151.58-32.03L151.58-32.03L151.58-32.03Q153.47-30.14 153.47-25.92L153.47-25.92L153.47-25.92Q153.47-21.95 151.42-12.67L151.42-12.67L151.42-12.67Q150.46-8.51 150.46-6.94L150.46-6.94L150.46-6.94Q150.46-5.38 151.33-4.48L151.33-4.48L151.33-4.48Q152.19-3.58 153.47-3.46L153.47-3.46L153.47-3.46Q152.83-1.28 150.62 0L150.62 0L150.62 0Q148.42 1.28 145.54 1.28ZM163.14-26.75L163.14-26.75L163.14-26.75Q165.31-29.82 168.61-31.87L168.61-31.87L168.61-31.87Q171.90-33.92 175.94-33.92L175.94-33.92L175.94-33.92Q179.97-33.92 181.89-32.64L181.89-32.64L194.43-33.92L190.08-9.34L190.08-9.34Q187.84 3.20 183.10 8.13L183.10 8.13L183.10 8.13Q178.56 12.80 169.73 12.80L169.73 12.80L169.73 12.80Q163.01 12.80 159.17 10.69L159.17 10.69L159.17 10.69Q155.33 8.58 155.33 5.06L155.33 5.06L155.33 5.06Q155.33 2.43 157.31 0.93L157.31 0.93L157.31 0.93Q159.30-0.58 162.37-0.58L162.37-0.58L162.37-0.58Q165.06-0.58 167.10 0.64L167.10 0.64L167.10 0.64Q168.32 1.28 168.90 2.18L168.90 2.18L168.90 2.18Q167.42 3.46 167.42 5.57L167.42 5.57L167.42 5.57Q167.42 8.32 169.98 8.32L169.98 8.32L169.98 8.32Q174.27 8.32 176.70-1.79L176.70-1.79L176.70-1.79Q177.41-4.54 177.98-7.30L177.98-7.30L177.98-7.30Q175.10-3.78 168.58-3.78L168.58-3.78L168.58-3.78Q164.03-3.78 161.41-5.95L161.41-5.95L161.41-5.95Q158.78-8.13 158.78-13.25L158.78-13.25L158.78-13.25Q158.78-16.45 159.87-20.06L159.87-20.06L159.87-20.06Q160.96-23.68 163.14-26.75ZM171.46-13.06L171.46-13.06L171.46-13.06Q171.46-8.70 173.70-8.70L173.70-8.70L173.70-8.70Q175.23-8.70 176.70-10.37L176.70-10.37L176.70-10.37Q177.86-11.71 178.30-13.70L178.30-13.70L181.57-30.14L181.57-30.14Q181.25-30.21 180.93-30.34L180.93-30.34L180.93-30.34Q180.29-30.59 179.46-30.59L179.46-30.59L179.46-30.59Q175.55-30.59 173.25-24.19L173.25-24.19L173.25-24.19Q171.46-19.20 171.46-13.06ZM210.88 1.28L210.88 1.28L210.88 1.28Q196.80 1.28 196.80-11.97L196.80-11.97L196.80-11.97Q196.80-21.38 201.98-27.46L201.98-27.46L201.98-27.46Q207.49-33.92 217.02-33.92L217.02-33.92L217.02-33.92Q223.94-33.92 227.46-30.72L227.46-30.72L227.46-30.72Q230.98-27.52 230.98-20.80L230.98-20.80L230.98-20.80Q230.98-10.56 225.47-4.61L225.47-4.61L225.47-4.61Q220.10 1.28 210.88 1.28ZM212.54-26.56L212.54-26.56L212.54-26.56Q211.78-24.83 211.17-22.24L211.17-22.24L211.17-22.24Q210.56-19.65 209.79-15.55L209.79-15.55L209.79-15.55Q209.02-11.46 209.02-6.40L209.02-6.40L209.02-6.40Q209.02-4.74 209.57-3.65L209.57-3.65L209.57-3.65Q210.11-2.56 211.58-2.56L211.58-2.56L211.58-2.56Q213.06-2.56 213.98-3.26L213.98-3.26L213.98-3.26Q214.91-3.97 215.62-5.63L215.62-5.63L215.62-5.63Q216.90-8.58 217.92-14.05L217.92-14.05L217.92-14.05Q218.94-19.52 219.04-21.89L219.04-21.89L219.04-21.89Q219.14-24.26 219.14-26.02L219.14-26.02L219.14-26.02Q219.14-27.78 218.62-28.93L218.62-28.93L218.62-28.93Q218.11-30.08 216.67-30.08L216.67-30.08L216.67-30.08Q215.23-30.08 214.27-29.18L214.27-29.18L214.27-29.18Q213.31-28.29 212.54-26.56ZM233.02-3.78L233.02-3.78L233.02-3.78Q233.02-6.21 234.85-7.52L234.85-7.52L234.85-7.52Q236.67-8.83 239.36-8.83L239.36-8.83L239.36-8.83Q242.05-8.83 243.74-7.52L243.74-7.52L243.74-7.52Q245.44-6.21 245.44-3.78L245.44-3.78L245.44-3.78Q245.44-1.34 243.55 0L243.55 0L243.55 0Q241.66 1.34 238.98 1.34L238.98 1.34L238.98 1.34Q236.29 1.34 234.66 0L234.66 0L234.66 0Q233.02-1.34 233.02-3.78ZM236.48-15.81L236.48-15.81L236.48-15.81Q236.48-16.26 236.61-16.90L236.61-16.90L241.60-42.62L241.60-42.62Q243.97-43.52 246.78-43.52L246.78-43.52L246.78-43.52Q249.60-43.52 251.07-41.73L251.07-41.73L251.07-41.73Q252.54-39.94 252.54-37.28L252.54-37.28L252.54-37.28Q252.54-34.62 251.52-31.65L251.52-31.65L251.52-31.65Q250.50-28.67 249.25-25.66L249.25-25.66L249.25-25.66Q248.00-22.66 246.94-19.55L246.94-19.55L246.94-19.55Q245.89-16.45 245.82-13.18L245.82-13.18L245.82-13.18Q244.35-11.52 241.79-11.52L241.79-11.52L241.79-11.52Q239.23-11.52 237.86-12.70L237.86-12.70L237.86-12.70Q236.48-13.89 236.48-15.81Z" fill="#000000"></path></g></g><style>text {
  font-size: 64px;
  font-family: Arial Black;
  dominant-baseline: central;
  text-anchor: middle;
}</style></svg>